<svg width="1064" height="292" viewBox="0 0 1064 292" fill="none" xmlns="http://www.w3.org/2000/svg">
<path d="M1060 7L40 123L8 285L1020 187L1060 7Z" fill="white"/>
<path d="M1024.51 190.058L0.336362 291.756L32.3268 117.389L1063.5 -1.42893e-05L1024.51 190.058ZM40.8243 126.486L12.5693 280.492L1016.19 180.834L1050.94 11.4947L40.8243 126.486Z" fill="black"/>
<path d="M65.7462 220.381C59.0887 221.081 53.6906 220.147 49.5517 217.579C46.0681 215.446 44.1564 212.764 43.8166 209.53C43.6425 207.874 43.9969 206.455 44.8796 205.273C45.7595 204.064 47.0775 203.367 48.8336 203.183C51.1925 202.935 53.0495 203.962 54.4045 206.265C56.2383 209.341 59.7894 210.602 65.0576 210.049C69.5658 209.575 73.8262 208.13 77.8388 205.715C82.0032 203.231 83.9583 200.78 83.7041 198.362C83.356 195.049 81.7638 193.011 78.9274 192.246C76.9077 191.687 72.9685 191.65 67.1098 192.132C62.5644 192.504 58.412 192.077 54.6526 190.85C49.5744 189.178 46.8605 186.301 46.5109 182.218C46.0508 177.084 48.2835 172.105 53.209 167.282C58.1317 162.432 63.8301 159.667 70.304 158.987C72.8726 158.717 76.1062 158.975 80.0048 159.761C84.8512 160.74 87.3752 162.189 87.5769 164.108C87.7206 165.475 87.3759 166.734 86.5428 167.885C85.6187 169.178 84.3311 169.911 82.6798 170.085C81.448 170.214 79.5725 170.145 77.0535 169.879C74.5607 169.609 72.6852 169.54 71.4271 169.673C68.0488 170.054 64.9237 171.207 62.0518 173.13C59.0779 175.09 57.6917 177.03 57.8934 178.949C57.9984 179.948 58.5572 180.726 59.5699 181.284C60.606 181.813 62.0945 182.108 64.0355 182.17C67.4097 182.002 70.7709 181.834 74.1189 181.668C79.9846 181.504 84.7571 182.663 88.4367 185.147C92.4901 187.91 94.8096 192.078 95.3954 197.651C96.1082 204.433 92.7954 209.977 85.457 214.283C79.865 217.555 73.2947 219.588 65.7462 220.381Z" fill="black"/>
<path d="M140.83 162.259C138.786 162.473 135.586 162.664 131.231 162.829C127.033 162.978 123.835 163.181 121.636 163.439C122.055 166.424 122.97 171.724 124.38 179.336C125.643 186.06 126.482 191.394 126.896 195.337C126.99 196.231 127.221 197.548 127.59 199.29C127.959 201.032 128.19 202.35 128.284 203.244C128.491 205.215 128.258 207.034 127.585 208.699C126.723 210.836 125.296 212.009 123.304 212.219C121.863 212.37 120.543 212.044 119.346 211.24C118.006 210.344 117.255 209.121 117.092 207.57C117.053 207.202 117.061 206.643 117.114 205.893C117.165 205.117 117.17 204.532 117.129 204.137C117.001 202.928 116.718 201.111 116.277 198.685C115.863 196.257 115.591 194.425 115.461 193.19C115.091 189.667 114.314 184.925 113.131 178.963C111.775 172.116 110.907 167.384 110.526 164.766L108.482 164.981C102.637 165.595 97.9532 165.662 94.4313 165.182C91.4473 164.778 89.8117 163.209 89.5244 160.475C89.3835 159.134 89.7282 157.876 90.5585 156.699C91.5239 155.295 92.9047 154.565 94.7008 154.509C95.6237 154.465 97.7309 154.47 101.022 154.523C103.648 154.539 105.76 154.463 107.358 154.295C108.957 154.127 111.34 153.85 114.506 153.464C117.698 153.076 120.093 152.797 121.692 152.629C123.684 152.42 126.687 152.25 130.701 152.121C134.713 151.965 137.715 151.782 139.707 151.573C141.279 151.408 142.644 151.782 143.8 152.697C144.982 153.61 145.652 154.815 145.81 156.313C145.967 157.812 145.564 159.143 144.6 160.308C143.659 161.443 142.403 162.093 140.83 162.259Z" fill="black"/>
<path d="M196.153 205.439C194.074 205.578 191.733 203.352 189.131 198.762C187.415 195.806 185.847 192.357 184.426 188.413C182.517 188.906 179.375 189.529 175.003 190.281C170.892 191.005 167.756 191.68 165.596 192.306C164.694 195.324 163.055 199.895 160.677 206.018C159.723 208.032 158.224 209.147 156.179 209.362C154.738 209.513 153.389 209.163 152.134 208.312C150.875 207.434 150.166 206.233 150.006 204.708C149.865 203.368 151.3 198.619 154.312 190.462C153.859 189.686 153.622 188.94 153.6 188.225C153.572 186.952 154.74 185.832 157.103 184.866C160.145 178.009 163.581 170.87 167.413 163.451C172.918 152.8 176.431 147.394 177.951 147.234C180.834 146.931 182.944 148.477 184.282 151.871C185.102 154.629 186.371 158.761 188.089 164.268C190.483 171.671 193.346 180.127 196.678 189.637C196.939 190.354 197.789 192.018 199.23 194.631C200.411 196.792 201.061 198.438 201.18 199.569C201.34 201.093 200.898 202.429 199.852 203.575C198.833 204.719 197.6 205.34 196.153 205.439ZM177.236 166.525C175.562 170.262 173.248 175.356 170.296 181.805C171.448 181.419 173.26 181.015 175.734 180.596C178.65 180.104 180.482 179.765 181.232 179.58C180.243 176.228 178.911 171.877 177.236 166.525Z" fill="black"/>
<path d="M246.071 199.475C244.656 199.624 243.301 199.208 242.005 198.228C233.279 191.597 224.006 187.336 214.188 185.444C215.281 193.064 215.871 197.294 215.959 198.135C216.117 199.633 215.727 200.963 214.789 202.125C213.848 203.26 212.591 203.911 211.019 204.076C209.446 204.241 208.082 203.866 206.926 202.951C205.767 202.01 205.109 200.79 204.951 199.292C204.744 197.32 204.461 194.374 204.101 190.451C203.739 186.503 203.455 183.543 203.248 181.571L199.982 149.743C199.802 148.034 200.15 146.429 201.026 144.929C202.175 143.001 203.938 142.005 206.317 141.941C212.735 141.745 216.025 141.651 216.185 141.661C219.901 141.722 223.113 142.275 225.82 143.319C237.605 147.795 243.938 154.212 244.816 162.571C245.178 166.015 244.319 169.188 242.239 172.091C240.183 174.965 236.904 177.555 232.403 179.862C239.758 183.023 245.404 186.442 249.342 190.122C250.369 191.077 250.951 192.198 251.086 193.486C251.241 194.958 250.825 196.291 249.837 197.484C248.847 198.652 247.592 199.315 246.071 199.475ZM215.657 152.52C215.444 152.516 213.9 152.572 211.024 152.688L213.224 173.626C213.882 173.583 214.46 173.536 214.958 173.483C221.38 172.808 226.053 171.507 228.977 169.578C230.242 168.754 231.365 167.719 232.347 166.473C233.356 165.224 233.829 164.311 233.769 163.733C233.459 160.788 231.3 158.145 227.291 155.802C223.481 153.598 219.604 152.504 215.657 152.52Z" fill="black"/>
<path d="M295.292 146.024C293.248 146.239 290.048 146.429 285.693 146.594C281.495 146.743 278.297 146.946 276.098 147.204C276.518 150.19 277.432 155.489 278.842 163.101C280.105 169.825 280.944 175.159 281.358 179.102C281.452 179.996 281.684 181.314 282.052 183.056C282.421 184.798 282.652 186.115 282.746 187.009C282.953 188.981 282.72 190.799 282.047 192.465C281.186 194.602 279.759 195.775 277.767 195.984C276.325 196.136 275.006 195.809 273.808 195.005C272.468 194.109 271.717 192.886 271.554 191.335C271.515 190.967 271.523 190.408 271.577 189.658C271.627 188.882 271.632 188.297 271.591 187.903C271.464 186.693 271.18 184.876 270.74 182.451C270.325 180.023 270.053 178.191 269.923 176.955C269.553 173.433 268.777 168.691 267.593 162.729C266.238 155.881 265.369 151.149 264.988 148.531L262.944 148.746C257.099 149.36 252.416 149.427 248.894 148.947C245.91 148.543 244.274 146.974 243.987 144.24C243.846 142.9 244.19 141.641 245.021 140.464C245.986 139.06 247.367 138.331 249.163 138.275C250.086 138.231 252.193 138.235 255.485 138.288C258.11 138.304 260.222 138.229 261.821 138.061C263.42 137.892 265.802 137.615 268.968 137.23C272.16 136.841 274.555 136.563 276.154 136.395C278.146 136.185 281.149 136.016 285.164 135.886C289.175 135.73 292.177 135.548 294.169 135.338C295.742 135.173 297.106 135.548 298.262 136.463C299.445 137.375 300.115 138.58 300.272 140.079C300.43 141.577 300.026 142.908 299.062 144.073C298.121 145.208 296.865 145.859 295.292 146.024Z" fill="black"/>
<path d="M378.216 137.308C376.172 137.523 372.972 137.713 368.617 137.879C364.419 138.028 361.221 138.231 359.022 138.488C359.442 141.474 360.356 146.773 361.766 154.386C363.029 161.11 363.868 166.443 364.283 170.386C364.376 171.28 364.608 172.598 364.976 174.34C365.345 176.082 365.576 177.4 365.67 178.294C365.877 180.265 365.644 182.084 364.971 183.749C364.11 185.886 362.683 187.059 360.691 187.268C359.249 187.42 357.93 187.094 356.732 186.289C355.392 185.394 354.641 184.17 354.478 182.619C354.439 182.251 354.447 181.692 354.501 180.943C354.552 180.166 354.556 179.581 354.515 179.187C354.388 177.978 354.104 176.16 353.664 173.735C353.249 171.307 352.977 169.475 352.847 168.24C352.477 164.717 351.701 159.975 350.517 154.013C349.162 147.166 348.293 142.433 347.912 139.816L345.868 140.03C340.023 140.645 335.34 140.712 331.818 140.232C328.834 139.828 327.198 138.259 326.911 135.525C326.77 134.184 327.114 132.925 327.945 131.748C328.91 130.345 330.291 129.615 332.087 129.559C333.01 129.515 335.117 129.52 338.409 129.572C341.034 129.589 343.146 129.513 344.745 129.345C346.344 129.177 348.726 128.9 351.892 128.514C355.084 128.125 357.479 127.847 359.078 127.679C361.07 127.47 364.073 127.3 368.088 127.17C372.099 127.015 375.101 126.832 377.093 126.623C378.666 126.457 380.03 126.832 381.186 127.747C382.369 128.659 383.039 129.865 383.196 131.363C383.354 132.861 382.95 134.193 381.986 135.357C381.045 136.493 379.789 137.143 378.216 137.308Z" fill="black"/>
<path d="M415.425 183.629C407.667 184.444 400.827 182.904 394.906 179.008C388.584 174.835 385.024 168.951 384.226 161.354C383.286 152.416 385.221 143.974 390.03 136.027C395.424 127.088 402.878 122.119 412.393 121.119C421.54 120.157 428.615 121.54 433.618 125.266C438.62 128.993 441.565 135.075 442.452 143.513C443.391 152.451 441.674 160.817 437.299 168.612C432.257 177.62 424.966 182.626 415.425 183.629ZM413.516 131.804C407.671 132.418 402.963 135.784 399.392 141.9C396.045 147.62 394.711 153.714 395.391 160.18C395.85 164.544 397.913 167.915 401.582 170.293C405.108 172.58 409.348 173.464 414.302 172.943C420.068 172.337 424.579 168.992 427.835 162.909C430.83 157.359 431.98 151.285 431.286 144.687C430.706 139.167 429.071 135.458 426.381 133.562C423.806 131.759 419.518 131.173 413.516 131.804Z" fill="black"/>
<path d="M455.693 177.363C454.144 177.499 452.791 177.11 451.635 176.195C450.476 175.254 449.819 174.047 449.664 172.575C449.388 169.946 449.092 165.991 448.775 160.709C448.484 155.424 448.201 151.467 447.925 148.838C447.618 145.92 447.093 141.55 446.348 135.729C445.63 129.904 445.117 125.533 444.811 122.615C444.659 121.169 445.203 119.663 446.443 118.098C447.68 116.506 449.085 115.628 450.657 115.462C451.522 115.371 453.784 115.958 457.441 117.221C461.708 118.739 464.234 119.577 465.019 119.733C472.961 121.423 479.92 124.599 485.895 129.26C493.024 134.809 496.984 141.356 497.777 148.901C498.255 153.448 497.596 157.89 495.799 162.224C494.011 166.638 491.309 170.311 487.695 173.242C483.643 176.538 477.672 178.601 469.783 179.43C467.869 179.631 465.639 179.587 463.091 179.296C460.005 178.93 457.539 178.285 455.693 177.363ZM473.528 134.506C470.817 133.17 465.1 131.22 456.377 128.655L460.48 167.691C461.571 168.241 462.79 168.617 464.136 168.821C465.506 168.996 467.004 168.998 468.629 168.828C474.29 168.233 478.27 167.017 480.568 165.181C482.743 163.437 484.377 161.206 485.469 158.486C486.587 155.764 487 153.01 486.707 150.224C486.022 143.704 481.629 138.465 473.528 134.506Z" fill="black"/>
<path d="M547.915 168.467C545.836 168.606 543.496 166.381 540.893 161.79C539.178 158.835 537.61 155.385 536.188 151.441C534.279 151.934 531.138 152.557 526.765 153.309C522.654 154.033 519.519 154.708 517.359 155.334C516.457 158.352 514.817 162.923 512.44 169.047C511.486 171.061 509.986 172.175 507.942 172.39C506.5 172.541 505.152 172.191 503.896 171.34C502.638 170.462 501.929 169.261 501.768 167.736C501.628 166.396 503.063 161.647 506.075 153.49C505.622 152.714 505.385 151.968 505.362 151.253C505.335 149.98 506.502 148.861 508.865 147.895C511.907 141.037 515.344 133.899 519.175 126.479C524.681 115.828 528.193 110.422 529.714 110.263C532.597 109.96 534.707 111.505 536.044 114.899C536.864 117.657 538.133 121.789 539.851 127.296C542.246 134.699 545.109 143.155 548.441 152.665C548.701 153.382 549.552 155.047 550.993 157.659C552.174 159.821 552.824 161.467 552.943 162.597C553.103 164.122 552.66 165.457 551.615 166.604C550.595 167.747 549.362 168.369 547.915 168.467ZM528.998 129.553C527.324 133.291 525.011 138.384 522.058 144.834C523.21 144.447 525.023 144.044 527.496 143.624C530.412 143.132 532.245 142.793 532.994 142.608C532.006 139.257 530.674 134.905 528.998 129.553Z" fill="black"/>
<path d="M595.855 113.038C594.808 115.939 592.749 122.188 589.677 131.787C587.129 139.815 584.904 146.135 583.004 150.747C579.711 158.747 577.944 162.986 577.702 163.463C576.396 165.912 574.734 167.243 572.716 167.455C571.274 167.607 569.953 167.267 568.753 166.437C567.437 165.512 566.697 164.274 566.534 162.723C566.399 161.435 568.569 155.732 573.044 145.614C570.719 142.909 567.357 138.784 562.959 133.239C559.669 129.173 554.823 123.025 548.419 114.795C547.801 113.956 547.441 113.05 547.339 112.078C547.179 110.553 547.633 109.203 548.702 108.028C549.7 106.939 550.934 106.318 552.401 106.164C554.131 105.982 555.796 106.697 557.397 108.31L560.843 112.732C561.059 113.028 563.717 116.629 568.815 123.534C572.036 127.953 574.838 131.419 577.222 133.933C578.791 129.702 581.022 123.315 583.913 114.772C584.509 112.875 585.4 110.004 586.586 106.159C587.333 103.688 588.912 102.326 591.324 102.073C592.765 101.921 594.086 102.261 595.286 103.092C596.6 103.99 597.338 105.215 597.501 106.766C597.595 107.659 597.046 109.75 595.855 113.038Z" fill="black"/>
<path d="M604.007 117.763C602.566 117.914 601.352 117.59 600.367 116.79C599.379 115.963 598.811 114.84 598.662 113.421C598.535 112.212 598.635 108.759 598.964 103.064C599.129 100.096 600.667 98.4598 603.576 98.154C605.018 98.0025 606.219 98.3413 607.181 99.1704C608.166 99.9705 608.733 101.08 608.882 102.5C608.979 103.42 608.87 106.793 608.555 112.62C608.508 113.688 608.175 114.68 607.556 115.596C606.71 116.881 605.527 117.603 604.007 117.763Z" fill="black"/>
<path d="M637.596 160.277C630.939 160.977 625.541 160.043 621.402 157.475C617.918 155.343 616.007 152.66 615.667 149.427C615.493 147.77 615.847 146.351 616.73 145.169C617.61 143.96 618.928 143.263 620.684 143.079C623.043 142.831 624.9 143.858 626.255 146.161C628.088 149.237 631.639 150.499 636.908 149.945C641.416 149.471 645.676 148.027 649.689 145.611C653.853 143.127 655.808 140.676 655.554 138.258C655.206 134.946 653.614 132.907 650.777 132.142C648.758 131.584 644.819 131.546 638.96 132.029C634.414 132.4 630.262 131.973 626.503 130.747C621.425 129.074 618.711 126.197 618.361 122.114C617.901 116.98 620.134 112.001 625.059 107.178C629.982 102.329 635.68 99.5636 642.154 98.8832C644.723 98.6132 647.956 98.8713 651.855 99.6576C656.701 100.637 659.225 102.085 659.427 104.004C659.571 105.371 659.226 106.63 658.393 107.781C657.469 109.074 656.181 109.807 654.53 109.981C653.298 110.11 651.423 110.042 648.904 109.775C646.411 109.505 644.535 109.437 643.277 109.569C639.899 109.95 636.774 111.103 633.902 113.026C630.928 114.986 629.542 116.926 629.744 118.845C629.849 119.844 630.407 120.622 631.42 121.18C632.456 121.709 633.945 122.005 635.886 122.066C639.26 121.898 642.621 121.73 645.969 121.565C651.835 121.4 656.607 122.559 660.287 125.043C664.34 127.806 666.66 131.974 667.245 137.547C667.958 144.329 664.645 149.873 657.307 154.179C651.715 157.451 645.145 159.484 637.596 160.277Z" fill="black"/>
<path d="M764.111 162.01C762.197 162.211 755.332 158.029 743.514 149.464C739.328 151.499 735.139 152.736 730.945 153.177C722.611 154.053 714.935 151.617 707.918 145.87C701.014 140.19 697.139 133.329 696.294 125.285C695.299 115.822 698.113 107.42 704.735 100.08C711.166 92.9453 719.244 88.8672 728.968 87.8451C739.373 86.7515 747.632 89.684 753.742 96.6429C758.89 102.507 761.985 110.394 763.027 120.304C763.891 128.532 760.69 136.018 753.422 142.762C755.144 144.016 757.739 145.883 761.206 148.362L766.061 151.44C767.988 152.885 769.032 154.37 769.192 155.894C769.344 157.34 768.939 158.658 767.978 159.849C766.999 161.121 765.71 161.842 764.111 162.01ZM730.112 98.7279C723.323 99.4414 717.721 102.236 713.304 107.112C708.762 112.055 706.827 117.72 707.498 124.107C708.034 129.207 710.596 133.655 715.182 137.452C719.791 141.22 724.664 142.834 729.802 142.294C730.483 142.223 731.213 142.106 731.991 141.944C727.748 138.643 725.506 135.836 725.262 133.522C725.097 131.945 725.561 130.567 726.656 129.389C727.681 128.298 728.928 127.675 730.395 127.521C732.178 127.334 733.795 127.974 735.248 129.443C737.858 132.092 740.701 134.425 743.774 136.44C749.685 131.912 752.354 126.927 751.782 121.486C751.02 114.231 748.915 108.578 745.469 104.529C741.6 99.9921 736.481 98.0585 730.112 98.7279Z" fill="black"/>
<path d="M808.82 132.952C807.18 135.756 805.102 138.167 802.584 140.186C799.503 142.636 796.219 144.044 792.733 144.41C786.05 145.113 780.947 144.347 777.426 142.112C769.987 137.393 765.561 128.303 764.146 114.845C764.011 113.556 763.875 111.631 763.738 109.067C763.601 106.503 763.464 104.578 763.329 103.29C763.221 102.264 763.087 100.737 762.927 98.7074C762.764 96.6515 762.629 95.1109 762.521 94.0857C762.3 91.9828 762.471 89.9582 763.035 88.0119C763.798 85.4335 765.096 84.0479 766.931 83.855C768.373 83.7035 769.693 84.0431 770.894 84.8737C772.204 85.7459 772.943 86.9706 773.108 88.5478C773.266 90.0462 773.479 92.3227 773.747 95.3775C774.038 98.4033 774.264 100.678 774.424 102.203C774.557 103.465 774.692 105.378 774.829 107.941C774.966 110.505 775.1 112.417 775.233 113.679C775.661 117.754 776.531 121.489 777.842 124.886C779.382 128.95 781.301 131.699 783.598 133.132C784.79 133.884 787.459 134.068 791.606 133.685C798.536 133.063 802.58 126.658 803.737 114.471C804.346 108.161 804.063 99.4202 802.889 88.2482C802.734 86.7761 803.018 85.3112 803.739 83.8534C804.728 81.9156 806.31 80.8324 808.485 80.6037C810.268 80.4164 811.673 80.9331 812.703 82.1538C813.486 83.0548 813.94 84.0967 814.065 85.2796C815.156 95.663 815.522 103.81 815.163 109.722C814.637 118.84 812.523 126.583 808.82 132.952Z" fill="black"/>
<path d="M857.795 83.5936C857.271 83.6487 856.712 83.6277 856.119 83.5306C851.751 82.8202 847.562 82.6758 843.552 83.0973C841.587 83.3039 839.493 83.6834 837.272 84.2357C835.051 84.7881 832.703 85.5133 830.227 86.4114C830.594 89.9076 831.022 95.1117 831.51 102.024C832.967 101.764 838.04 100.739 846.729 98.949C851.683 97.9234 854.828 97.3403 856.164 97.1998C857.711 97.0373 859.087 97.3976 860.293 98.2808C861.496 99.1377 862.183 100.381 862.354 102.011C862.683 105.139 861.205 107.088 857.921 107.859C855.841 108.237 852.736 108.829 848.607 109.635C844.93 110.447 839.374 111.549 831.942 112.941C832.109 116.299 832.301 119.003 832.516 121.054C833.058 126.206 833.667 129.105 834.345 129.751C834.669 130.063 836.338 130.06 839.352 129.743C840.977 129.573 843.424 129.276 846.692 128.852C849.96 128.429 852.406 128.132 854.031 127.961C854.556 127.906 855.321 127.746 856.326 127.481C857.332 127.216 858.084 127.057 858.582 127.005C860.102 126.845 861.445 127.142 862.611 127.897C863.945 128.74 864.704 130.042 864.889 131.803C865.199 134.748 863.851 136.67 860.845 137.571C858.276 138.345 852.864 139.167 844.608 140.035C836.063 140.933 830.372 140.361 827.534 138.321C824.409 136.071 822.4 130.701 821.508 122.211C821.138 118.688 820.831 113.378 820.589 106.281C820.37 99.1547 820.077 93.8435 819.709 90.3473C819.613 89.4273 819.339 88.0873 818.889 86.3273C818.436 84.5411 818.162 83.1879 818.065 82.2679C817.645 78.2723 819.27 76.0816 822.939 75.696C824.093 75.5748 825.189 75.7918 826.227 76.347C829.188 75.2651 832.011 74.3969 834.699 73.7424C837.409 73.0589 839.983 72.589 842.421 72.3328C849.026 71.6386 854.387 71.8458 858.505 72.9545C861.013 73.6211 862.395 75.1636 862.649 77.582C862.792 78.9489 862.448 80.2077 861.615 81.3583C860.693 82.6777 859.42 83.4228 857.795 83.5936Z" fill="black"/>
<path d="M888.507 133.906C881.85 134.605 876.451 133.671 872.313 131.103C868.829 128.971 866.917 126.288 866.577 123.055C866.403 121.399 866.758 119.979 867.64 118.797C868.52 117.588 869.838 116.892 871.595 116.707C873.953 116.459 875.81 117.486 877.165 119.789C878.999 122.865 882.55 124.127 887.819 123.573C892.327 123.099 896.587 121.655 900.6 119.24C904.764 116.756 906.719 114.304 906.465 111.886C906.117 108.574 904.525 106.535 901.688 105.77C899.669 105.212 895.729 105.174 889.871 105.657C885.325 106.028 881.173 105.601 877.414 104.375C872.335 102.703 869.621 99.8252 869.272 95.7425C868.812 90.6082 871.044 85.6295 875.97 80.8063C880.893 75.9568 886.591 73.1918 893.065 72.5114C895.634 72.2414 898.867 72.4996 902.766 73.2858C907.612 74.2647 910.136 75.7137 910.338 77.6326C910.482 78.9995 910.137 80.2583 909.304 81.409C908.38 82.7021 907.092 83.4354 905.441 83.609C904.209 83.7384 902.333 83.6698 899.814 83.403C897.322 83.1335 895.446 83.0648 894.188 83.197C890.81 83.5787 887.685 84.7311 884.813 86.6541C881.839 88.6145 880.453 90.5541 880.654 92.4731C880.759 93.472 881.318 94.2504 882.331 94.8084C883.367 95.3374 884.855 95.6328 886.796 95.6945C890.171 95.5259 893.532 95.3587 896.88 95.1928C902.745 95.0281 907.518 96.1876 911.198 98.6712C915.251 101.434 917.571 105.603 918.156 111.175C918.869 117.957 915.556 123.501 908.218 127.807C902.626 131.08 896.056 133.112 888.507 133.906Z" fill="black"/>
<path d="M963.591 75.7829C961.546 75.9978 958.347 76.1879 953.992 76.3533C949.794 76.5022 946.595 76.7054 944.396 76.9631C944.816 79.9488 945.731 85.2479 947.141 92.8603C948.404 99.5845 949.243 104.918 949.657 108.861C949.751 109.755 949.982 111.073 950.351 112.815C950.719 114.557 950.951 115.874 951.045 116.768C951.252 118.74 951.019 120.558 950.346 122.224C949.484 124.361 948.057 125.534 946.065 125.743C944.624 125.895 943.304 125.568 942.107 124.764C940.767 123.868 940.016 122.645 939.853 121.094C939.814 120.726 939.821 120.167 939.875 119.417C939.926 118.641 939.931 118.056 939.889 117.662C939.762 116.452 939.479 114.635 939.038 112.21C938.624 109.782 938.352 107.95 938.222 106.714C937.852 103.192 937.075 98.4496 935.892 92.4878C934.536 85.6405 933.668 80.9079 933.287 78.2903L931.242 78.5051C925.398 79.1195 920.714 79.1865 917.192 78.7062C914.208 78.3022 912.573 76.7333 912.285 73.9995C912.144 72.6588 912.489 71.4001 913.319 70.2231C914.285 68.8194 915.666 68.0895 917.462 68.0336C918.385 67.9898 920.492 67.9942 923.783 68.0469C926.408 68.0634 928.52 67.9876 930.119 67.8195C931.718 67.6515 934.1 67.3745 937.266 66.9886C940.459 66.5999 942.854 66.3216 944.453 66.1535C946.445 65.9442 949.448 65.7747 953.462 65.6451C957.474 65.4893 960.476 65.3066 962.468 65.0973C964.04 64.932 965.405 65.3068 966.561 66.2218C967.743 67.1341 968.413 68.3394 968.571 69.8377C968.728 71.3361 968.325 72.6675 967.361 73.8319C966.42 74.9673 965.163 75.6176 963.591 75.7829Z" fill="black"/>
<path d="M977.928 110.235C976.461 110.389 975.193 110.057 974.127 109.239C973.087 108.418 972.493 107.311 972.347 105.918C972.239 104.893 972.04 103.372 971.748 101.357C971.48 99.3118 971.292 97.7768 971.185 96.7516C970.803 93.124 970.258 87.6798 969.548 80.4191C968.864 73.1557 968.331 67.7102 967.95 64.0826C967.803 62.6893 968.167 61.4818 969.04 60.4598C969.91 59.4115 971.066 58.8117 972.508 58.6601C973.949 58.5086 975.205 58.8551 976.274 59.6995C977.34 60.5176 977.947 61.6232 978.093 63.0164L982.49 104.852C982.637 106.245 982.273 107.453 981.4 108.475C980.553 109.494 979.396 110.081 977.928 110.235ZM979.315 124.561C977.742 124.726 976.186 124.039 974.646 122.5C973.251 121.079 972.483 119.697 972.343 118.357C972.199 116.99 972.616 115.79 973.594 114.757C974.572 113.724 975.742 113.136 977.105 112.993C978.678 112.827 980.221 113.516 981.734 115.057C983.129 116.479 983.896 117.847 984.034 119.161C984.175 120.502 983.758 121.702 982.783 122.761C981.834 123.818 980.678 124.417 979.315 124.561Z" fill="black"/>
<path d="M993.088 108.642C991.621 108.796 990.353 108.464 989.287 107.646C988.247 106.825 987.653 105.718 987.507 104.325C987.399 103.3 987.2 101.779 986.908 99.7633C986.64 97.7184 986.453 96.1834 986.345 95.1582C985.963 91.5306 985.418 86.0865 984.708 78.8258C984.024 71.5623 983.491 66.1168 983.11 62.4892C982.963 61.096 983.327 59.8884 984.2 58.8664C985.07 57.8182 986.226 57.2183 987.668 57.0668C989.109 56.9152 990.365 57.2617 991.434 58.1061C992.5 58.9242 993.107 60.0299 993.253 61.4231L997.65 103.259C997.797 104.652 997.433 105.859 996.56 106.881C995.714 107.901 994.556 108.487 993.088 108.642ZM994.475 122.967C992.902 123.133 991.346 122.446 989.806 120.907C988.411 119.485 987.643 118.104 987.503 116.763C987.359 115.397 987.776 114.197 988.754 113.164C989.732 112.131 990.902 111.542 992.265 111.399C993.838 111.234 995.381 111.922 996.894 113.464C998.289 114.886 999.056 116.253 999.194 117.568C999.335 118.908 998.918 120.108 997.943 121.168C996.994 122.224 995.838 122.824 994.475 122.967Z" fill="black"/>
<path d="M1008.25 107.048C1006.78 107.203 1005.51 106.871 1004.45 106.053C1003.41 105.232 1002.81 104.125 1002.67 102.731C1002.56 101.706 1002.36 100.186 1002.07 98.1699C1001.8 96.125 1001.61 94.59 1001.5 93.5648C1001.12 89.9372 1000.58 84.4931 999.868 77.2324C999.184 69.9689 998.651 64.5234 998.27 60.8958C998.123 59.5026 998.487 58.295 999.36 57.273C1000.23 56.2248 1001.39 55.6249 1002.83 55.4734C1004.27 55.3219 1005.52 55.6683 1006.59 56.5127C1007.66 57.3308 1008.27 58.4365 1008.41 59.8297L1012.81 101.665C1012.96 103.059 1012.59 104.266 1011.72 105.288C1010.87 106.307 1009.72 106.894 1008.25 107.048ZM1009.63 121.374C1008.06 121.539 1006.51 120.852 1004.97 119.313C1003.57 117.892 1002.8 116.511 1002.66 115.17C1002.52 113.803 1002.94 112.603 1003.91 111.57C1004.89 110.537 1006.06 109.949 1007.43 109.806C1009 109.641 1010.54 110.329 1012.05 111.871C1013.45 113.292 1014.22 114.66 1014.35 115.974C1014.49 117.315 1014.08 118.515 1013.1 119.574C1012.15 120.631 1011 121.231 1009.63 121.374Z" fill="black"/>
</svg>
